<svg width="45" height="45" viewBox="0 0 45 45" fill="none" xmlns="http://www.w3.org/2000/svg">
<circle opacity="0.8" cx="22.5" cy="22.5" r="22.5" fill="#E97451"/>
<path d="M26 17V16.2C26 15.0799 26 14.5198 25.782 14.092C25.5903 13.7157 25.2843 13.4097 24.908 13.218C24.4802 13 23.9201 13 22.8 13H21.2C20.0799 13 19.5198 13 19.092 13.218C18.7157 13.4097 18.4097 13.7157 18.218 14.092C18 14.5198 18 15.0799 18 16.2V17M20 22.5V27.5M24 22.5V27.5M13 17H31M29 17V28.2C29 29.8802 29 30.7202 28.673 31.362C28.3854 31.9265 27.9265 32.3854 27.362 32.673C26.7202 33 25.8802 33 24.2 33H19.8C18.1198 33 17.2798 33 16.638 32.673C16.0735 32.3854 15.6146 31.9265 15.327 31.362C15 30.7202 15 29.8802 15 28.2V17" stroke="#fff" stroke-width="2" stroke-linecap="round" stroke-linejoin="round"/>
</svg>
